<?xml version="1.0" standalone="no"?><!DOCTYPE svg PUBLIC "-//W3C//DTD SVG 1.1//EN" "http://www.w3.org/Graphics/SVG/1.1/DTD/svg11.dtd"><svg t="1558518641317" class="icon" style="" viewBox="0 0 1024 1024" version="1.1" xmlns="http://www.w3.org/2000/svg" p-id="2374" xmlns:xlink="http://www.w3.org/1999/xlink" width="200" height="200"><defs><style type="text/css"></style></defs><path d="M623 242.5c-13.2-13.2-34.6-13.2-47.8 0-13.2 13.2-13.2 34.6 0 47.8l93.9 93.9-366.5 0.1c-48.5 0-87.9 39.4-87.9 87.9l0.1 268.5c0 18.6 15.1 33.8 33.8 33.8 18.6 0 33.8-15.2 33.8-33.8l-0.1-268.5c0-11.2 9.1-20.3 20.3-20.3l366.5-0.1-93.9 93.9c-13.2 13.2-13.2 34.6 0 47.8 6.6 6.6 15.2 9.9 23.9 9.9s17.3-3.3 23.9-9.9l139.7-139.7c9.6-9.6 14.9-22.3 14.9-35.9 0-13.5-5.3-26.3-14.9-35.8L623 242.5z" p-id="2375"></path><path d="M805.3 67.1H88.7C40.2 67.1 0.8 106.5 0.8 155v716.7c0 48.5 39.4 87.9 87.9 87.9h716.7c48.5 0 87.9-39.4 87.9-87.9V155c0-48.5-39.5-87.9-88-87.9z m20.3 804.6c0 11.2-9.1 20.3-20.3 20.3H88.7c-11.2 0-20.3-9.1-20.3-20.3V155c0-11.2 9.1-20.3 20.3-20.3h716.7c11.2 0 20.3 9.1 20.3 20.3v716.7zM990.2 112.1c-18.7 0-33.8 15.1-33.8 33.8v739.3c0 18.7 15.1 33.8 33.8 33.8s33.8-15.1 33.8-33.8V146c0-18.7-15.1-33.9-33.8-33.9z" p-id="2376"></path></svg>