<?xml version="1.0" standalone="no"?><!DOCTYPE svg PUBLIC "-//W3C//DTD SVG 1.1//EN" "http://www.w3.org/Graphics/SVG/1.1/DTD/svg11.dtd"><svg t="1556601772055" class="icon" style="" viewBox="0 0 1024 1024" version="1.1" xmlns="http://www.w3.org/2000/svg" p-id="7656" xmlns:xlink="http://www.w3.org/1999/xlink" width="200" height="200"><defs><style type="text/css"></style></defs><path d="M937.6 176l-153.6 153.6-89.6-89.6L800 134.4l48-48C736 16 588.8 28.8 489.6 124.8c-70.4 70.4-96 169.6-80 259.2l-352 352c-25.6 25.6-25.6 64 0 89.6L192 960c25.6 25.6 64 25.6 89.6 0l352-352c89.6 19.2 188.8-9.6 259.2-80 102.4-92.8 115.2-240 44.8-352z m-86.4 313.6c-64 64-153.6 80-233.6 51.2L243.2 918.4l-134.4-134.4 377.6-377.6c-28.8-80-9.6-169.6 51.2-233.6 54.4-54.4 128-73.6 198.4-60.8l-83.2 83.2L608 240l182.4 182.4 131.2-131.2c6.4 70.4-16 144-70.4 198.4z" fill="" p-id="7657"></path></svg>