<?xml version="1.0" standalone="no"?><!DOCTYPE svg PUBLIC "-//W3C//DTD SVG 1.1//EN" "http://www.w3.org/Graphics/SVG/1.1/DTD/svg11.dtd"><svg class="icon" width="200px" height="200.00px" viewBox="0 0 1024 1024" version="1.1" xmlns="http://www.w3.org/2000/svg"><path fill="#ffffff" d="M893.120162 296.779042l-296.651905 169.515375a217.827257 217.827257 0 0 1-169.515375 0L130.300976 296.779042a78.400861 78.400861 0 0 1 0-127.136531L432.88592 17.502462a184.34797 184.34797 0 0 1 156.801722 0L893.120162 169.642511a78.400861 78.400861 0 0 1 0 127.136531zM130.300976 381.53673l296.651906 169.515374c42.378844 25.851095 42.378844 78.400861 42.378843 127.136532v254.273062c0 48.73567-84.757687 110.608782-127.136531 84.757687l-197.485411-175.872201A122.898647 122.898647 0 0 1 87.922132 729.467036V466.294417c0-47.888093 0-109.761205 42.378844-84.757687z m466.167281 169.515374l296.651905-169.515374c42.378844-25.003518 42.378844 37.293382 42.378844 84.757687v254.273062c0 47.464305 0 102.133013-42.378844 127.136531l-211.894218 169.515375c-42.378844 25.003518-127.136531-37.293382-127.136531-84.757687v-296.651906c2.118942-46.616728 0-58.906593 42.378844-84.757688z" /></svg>