<?xml version="1.0" standalone="no"?><!DOCTYPE svg PUBLIC "-//W3C//DTD SVG 1.1//EN" "http://www.w3.org/Graphics/SVG/1.1/DTD/svg11.dtd"><svg t="1578295960179" class="icon" viewBox="0 0 1024 1024" version="1.1" xmlns="http://www.w3.org/2000/svg" p-id="1940" xmlns:xlink="http://www.w3.org/1999/xlink" width="200" height="200"><defs><style type="text/css"></style></defs><path d="M963.876571 57.782857a37.449143 37.449143 0 0 0-18.139428-2.56h-140.873143a36.571429 36.571429 0 1 0 0 73.142857h54.418286L657.993143 329.654857 394.166857 65.755429A38.253714 38.253714 0 0 0 365.494857 54.857143a37.741714 37.741714 0 0 0-28.233143 10.825143L47.323429 355.693714a37.888 37.888 0 0 0 53.540571 53.540572l264.265143-264.338286 264.192 264.192c7.826286 7.899429 18.285714 11.337143 28.672 10.898286a37.741714 37.741714 0 0 0 28.672-10.898286l227.913143-227.913143v56.832a36.571429 36.571429 0 1 0 73.142857 0v-146.285714a36.352 36.352 0 0 0-23.844572-33.938286zM73.435429 676.864a36.571429 36.571429 0 0 0-36.571429 36.571429v219.428571a36.571429 36.571429 0 1 0 73.142857 0v-219.428571a36.571429 36.571429 0 0 0-36.571428-36.571429z m292.571428-256a36.571429 36.571429 0 0 0-36.571428 36.571429v475.428571a36.571429 36.571429 0 1 0 73.142857 0v-475.428571a36.571429 36.571429 0 0 0-36.571429-36.571429z m594.139429 214.454857h-2.194286c-36.717714 0-66.56-31.597714-66.56-70.436571 0-12.873143 5.778286-26.843429 5.778286-26.989715a32.914286 32.914286 0 0 0-10.166857-38.546285l-0.658286-0.438857-64-37.741715-0.658286-0.292571a32.548571 32.548571 0 0 0-36.278857 7.68c-7.826286 8.557714-32.475429 30.72-52.443429 30.72-19.968 0-44.836571-22.601143-52.662857-31.305143a32.768 32.768 0 0 0-24.064-10.532571 29.110857 29.110857 0 0 0-12.141714 2.56l-0.731429 0.292571-66.194285 38.619429-0.658286 0.438857a32.987429 32.987429 0 0 0-10.24 38.546285c0 0.146286 5.778286 14.116571 5.778286 26.989715 0 38.838857-29.842286 70.436571-66.56 70.436571h-2.194286c-10.678857-0.146286-19.456 9.728-22.235429 25.307429a362.496 362.496 0 0 0-5.339428 53.174857c0 22.893714 5.12 51.858286 5.339428 53.174857 2.779429 15.286857 11.264 25.161143 21.796572 25.161143h2.633143c36.717714 0 66.56 31.597714 66.56 70.582857 0 12.726857-5.778286 26.843429-5.778286 26.843429a32.987429 32.987429 0 0 0 10.166857 38.546285l0.585143 0.438857 62.829714 37.302858 0.658286 0.292571a32.402286 32.402286 0 0 0 36.352-8.118857c7.387429-8.411429 32.987429-32.548571 53.540571-32.548572 20.553143 0 45.860571 23.990857 53.833143 33.28 9.069714 10.24 23.698286 13.604571 36.278857 8.265143l0.731429-0.292571 65.024-38.107429 0.731429-0.438857a33.133714 33.133714 0 0 0 10.166857-38.546286s-5.778286-14.116571-5.778286-26.843428c0-38.985143 29.842286-70.582857 66.56-70.582857h2.194286c10.678857 0.292571 19.456-9.728 22.235428-25.161143 0.219429-1.316571 5.339429-30.281143 5.339429-53.174857s-5.12-52.004571-5.339429-53.174857c-2.779429-15.725714-11.556571-25.526857-22.235428-25.380572z m-48.932572 116.224c-41.325714 2.267429-74.386286 38.838857-74.386285 83.456 0 14.848 5.412571 29.110857 6.582857 32.036572l-49.298286 28.964571h-0.146286c-0.731429 0-1.389714-0.146286-1.536-0.438857a138.386286 138.386286 0 0 0-18.358857-17.261714c-15.36-12.141714-29.915429-18.285714-43.446857-18.285715-13.385143 0-27.867429 6.144-43.154286 17.993143-10.24 7.972571-17.334857 16.018286-18.212571 16.969143a3.876571 3.876571 0 0 1-1.536 0.438857h-0.146286l-47.616-28.306286c1.243429-2.998857 6.656-17.261714 6.656-32.109714 0-44.544-32.987429-81.115429-74.386286-83.456a257.316571 257.316571 0 0 1-3.876571-38.034286c0-14.701714 3.218286-34.304 3.803429-37.888 41.398857-2.267429 74.459429-38.838857 74.459428-83.456 0-14.848-5.412571-28.964571-6.582857-32.036571l50.322286-29.403429h0.146285c0.877714 0 1.609143 0.292571 1.828572 0.585143 0.877714 0.877714 7.899429 8.557714 18.139428 16.310857 14.994286 11.410286 29.257143 17.261714 42.349715 17.261715 12.946286 0 27.062857-5.705143 42.057143-16.969143 10.166857-7.606857 17.115429-15.140571 17.993142-16.018286a4.388571 4.388571 0 0 1 1.828572-0.438857h0.146286l48.566857 28.745143c-1.170286 2.852571-6.582857 17.115429-6.582857 32.036571 0 44.544 32.987429 81.115429 74.386285 83.456 0.658286 3.584 3.876571 23.113143 3.876572 37.888 0 14.848-3.218286 34.596571-3.876572 37.961143z m-179.492571-111.689143a72.923429 72.923429 0 0 0-72.265143 73.581715 72.850286 72.850286 0 0 0 72.265143 73.581714 72.850286 72.850286 0 0 0 72.265143-73.581714 72.923429 72.923429 0 0 0-72.265143-73.581715z" p-id="1941"></path></svg>