<?xml version="1.0" standalone="no"?><!DOCTYPE svg PUBLIC "-//W3C//DTD SVG 1.1//EN" "http://www.w3.org/Graphics/SVG/1.1/DTD/svg11.dtd"><svg t="1574928579000" class="icon" viewBox="0 0 1024 1024" version="1.1" xmlns="http://www.w3.org/2000/svg" p-id="2426" xmlns:xlink="http://www.w3.org/1999/xlink" width="200" height="200"><defs><style type="text/css"></style></defs><path d="M831.978667 319.914667c-7.296 0-14.378667 0.746667-21.333334 1.92v-65.856a42.453333 42.453333 0 0 0-12.501333-30.165334 42.581333 42.581333 0 0 0-30.165333-12.501333h-127.189334c1.173333-6.954667 1.92-14.058667 1.92-21.333333a128.021333 128.021333 0 0 0-256.042666 0c0 7.296 0.746667 14.378667 1.92 21.333333H170.645333a42.453333 42.453333 0 0 0-30.165333 12.501333 42.453333 42.453333 0 0 0-12.501333 30.165334v109.525333a21.184 21.184 0 0 0 26.666666 20.501333 63.637333 63.637333 0 0 1 29.674667-0.618666 64.298667 64.298667 0 0 1 49.365333 51.285333 64.064 64.064 0 0 1-78.912 73.258667c-13.44-3.562667-26.794667 5.461333-26.794666 19.349333v324.032c0 10.922667 4.16 21.845333 12.501333 30.165333 8.32 8.341333 19.242667 12.501333 30.165333 12.501334h258.944a21.162667 21.162667 0 0 0 20.48-26.666667 63.637333 63.637333 0 0 1-0.618666-29.674667 64.298667 64.298667 0 0 1 51.285333-49.365333 64.064 64.064 0 0 1 73.258667 78.912c-3.52 13.461333 5.482667 26.816 19.392 26.816H767.978667a42.645333 42.645333 0 0 0 42.666666-42.688V574.016c6.954667 1.173333 14.058667 1.92 21.333334 1.92a128.021333 128.021333 0 0 0 0-256.021333z m0 192.021333c-3.072 0-6.592-0.341333-10.730667-1.024l-49.749333-8.362667a21.290667 21.290667 0 0 0-24.853334 21.034667v287.061333a21.269333 21.269333 0 0 1-21.333333 21.333334H638.250667c-10.176-60.48-62.912-106.688-126.229334-106.688s-116.053333 46.208-126.229333 106.688H213.312a21.269333 21.269333 0 0 1-21.333333-21.333334V574.165333C252.458667 563.989333 298.666667 511.253333 298.666667 447.936s-46.208-116.053333-106.688-126.229333v-23.061334a21.269333 21.269333 0 0 1 21.333333-21.333333H439.04a21.290667 21.290667 0 0 0 21.034667-24.874667l-8.362667-49.749333a64.085333 64.085333 0 0 1-1.024-10.709333c0-35.306667 28.714667-64.021333 64.021333-64.021334s64.021333 28.714667 64.021334 64.021334c0 3.072-0.341333 6.592-1.024 10.709333l-8.362667 49.749333a21.290667 21.290667 0 0 0 20.992 24.874667h134.976a21.269333 21.269333 0 0 1 21.333333 21.333333V372.266667a21.354667 21.354667 0 0 0 24.874667 21.034666l49.749333-8.362666c4.138667-0.704 7.637333-1.024 10.730667-1.024a64.085333 64.085333 0 0 1 64.021333 64.021333 64.106667 64.106667 0 0 1-64.042666 64z" fill="#ffffff" p-id="2427"></path></svg>