<?xml version="1.0" standalone="no"?><!DOCTYPE svg PUBLIC "-//W3C//DTD SVG 1.1//EN" "http://www.w3.org/Graphics/SVG/1.1/DTD/svg11.dtd"><svg t="1556602080056" class="icon" style="" viewBox="0 0 1024 1024" version="1.1" xmlns="http://www.w3.org/2000/svg" p-id="1902" xmlns:xlink="http://www.w3.org/1999/xlink" width="200" height="200"><defs><style type="text/css"></style></defs><path d="M830.976 402.944c-13.312 0-25.088-9.216-28.672-22.528C770.048 245.76 650.752 152.064 512 152.064c-138.752 0-258.048 94.208-290.816 228.352-3.584 15.872-19.456 25.6-35.328 21.504-15.872-3.584-25.6-19.456-21.504-35.328 38.912-160.768 181.76-273.408 347.648-273.408 165.888 0 308.736 112.64 347.648 273.408 3.584 15.872-5.632 31.744-21.504 35.328C835.584 402.432 833.536 402.944 830.976 402.944z" p-id="1903"></path><path d="M912.384 411.648 111.616 411.648c-16.384 0-29.184-13.312-29.184-29.184 0-16.384 13.312-29.184 29.184-29.184l801.28 0c16.384 0 29.184 13.312 29.184 29.184C941.568 398.336 928.768 411.648 912.384 411.648z" p-id="1904"></path><path d="M182.272 930.816c-16.384 0-29.184-13.312-29.184-29.184L153.088 400.896c0-16.384 13.312-29.184 29.184-29.184 16.384 0 29.184 13.312 29.184 29.184L211.456 901.12C211.456 917.504 198.656 930.816 182.272 930.816z" p-id="1905"></path><path d="M841.728 930.816c-16.384 0-29.184-13.312-29.184-29.184L812.544 400.896c0-16.384 13.312-29.184 29.184-29.184s29.184 13.312 29.184 29.184L870.912 901.12C870.912 917.504 857.6 930.816 841.728 930.816z" p-id="1906"></path><path d="M401.92 930.816c-16.384 0-29.184-13.312-29.184-29.184L372.736 400.896c0-16.384 13.312-29.184 29.184-29.184s29.184 13.312 29.184 29.184L431.104 901.12C431.616 917.504 418.304 930.816 401.92 930.816z" p-id="1907"></path><path d="M622.08 930.816c-16.384 0-29.184-13.312-29.184-29.184L592.896 400.896c0-16.384 13.312-29.184 29.184-29.184s29.184 13.312 29.184 29.184L651.264 901.12C651.264 917.504 637.952 930.816 622.08 930.816z" p-id="1908"></path><path d="M292.352 731.648c-16.384 0-29.184-13.312-29.184-29.184l0-117.248c0-16.384 13.312-29.184 29.184-29.184s29.184 13.312 29.184 29.184l0 117.248C321.536 718.848 308.224 731.648 292.352 731.648z" p-id="1909"></path><path d="M512 731.648c-16.384 0-29.184-13.312-29.184-29.184l0-117.248c0-16.384 13.312-29.184 29.184-29.184s29.184 13.312 29.184 29.184l0 117.248C541.184 718.848 528.384 731.648 512 731.648z" p-id="1910"></path><path d="M731.648 731.648c-16.384 0-29.184-13.312-29.184-29.184l0-117.248c0-16.384 13.312-29.184 29.184-29.184s29.184 13.312 29.184 29.184l0 117.248C760.832 718.848 748.032 731.648 731.648 731.648z" p-id="1911"></path><path d="M912.384 930.816 111.616 930.816c-16.384 0-29.184-13.312-29.184-29.184s13.312-29.184 29.184-29.184l801.28 0c16.384 0 29.184 13.312 29.184 29.184S928.768 930.816 912.384 930.816z" p-id="1912"></path></svg>