<?xml version="1.0" standalone="no"?><!DOCTYPE svg PUBLIC "-//W3C//DTD SVG 1.1//EN" "http://www.w3.org/Graphics/SVG/1.1/DTD/svg11.dtd"><svg t="1574928559761" class="icon" viewBox="0 0 1027 1024" version="1.1" xmlns="http://www.w3.org/2000/svg" p-id="1651" xmlns:xlink="http://www.w3.org/1999/xlink" width="200.5859375" height="200"><defs><style type="text/css"></style></defs><path d="M1027.545 641.839a7.267 7.267 0 0 0-2.954-4.136l-1.005-0.59a141.804 141.804 0 0 1-1.004-250.993l3.309-12.35-137.963-237.166-13.472-3.545a204.375 204.375 0 0 1-36.278 15.362A142.572 142.572 0 0 1 663.582 48.45a202.188 202.188 0 0 1-4.963-39.47L649.52 0 374.657 0.59l-7.622 4.432Q327.448 130.755 261.687 148.48a142.69 142.69 0 0 1-113.325-16.957L136.9 138.14 0 375.898l3.19 11.817a141.804 141.804 0 0 1 70.016 87.977A141.804 141.804 0 0 1 4.018 637.408L0.59 649.934 138.554 887.1l14.062 3.723A142.985 142.985 0 0 1 365.145 974.9a141.272 141.272 0 0 1 4.844 42.187l6.973 6.913 274.862-0.59 10.281-10.282a142.808 142.808 0 0 1 217.432-124.61l10.045-2.718 136.9-237.757 0.59-1.005a7.327 7.327 0 0 0 0.473-5.199zM856.731 805.031a211.701 211.701 0 0 0-256.133 149.662l-169.574 0.355a211.406 211.406 0 0 0-258.673-146.53L86.323 660.804a210.401 210.401 0 0 0 53.176-202.779 210.047 210.047 0 0 0-53.708-93.177l85.969-149.366a211.465 211.465 0 0 0 107.889-0.65A211.17 211.17 0 0 0 427.834 69.188l170.105-0.354a211.406 211.406 0 0 0 256.37 146.53l85.731 147.358a210.401 210.401 0 0 0 0 297.433z" fill="#ffffff" p-id="1652"></path><path d="M702.342 321.54a267.123 267.123 0 1 0 57.371 85.141 266.886 266.886 0 0 0-57.371-85.141zM512.916 730.762a219.796 219.796 0 1 1 219.736-219.796 220.032 220.032 0 0 1-219.736 219.796z" fill="#ffffff" p-id="1653"></path><path d="M560.125 414.776l98.258 96.19-98.258 96.19 25.229 25.23L700.392 515.22l1.655-1.89v-4.846L585.354 389.547l-25.23 25.229z m-117.166-25.23l-119.174 121.42 119.174 121.42 25.289-25.23-98.318-96.19 98.318-96.19-25.289-25.23z m33.07 228.724l44-221.013 32.16 6.405-44 221.013z" fill="#ffffff" p-id="1654"></path></svg>