<?xml version="1.0" standalone="no"?><!DOCTYPE svg PUBLIC "-//W3C//DTD SVG 1.1//EN" "http://www.w3.org/Graphics/SVG/1.1/DTD/svg11.dtd"><svg t="1578388309679" class="icon" viewBox="0 0 1024 1024" version="1.1" xmlns="http://www.w3.org/2000/svg" p-id="1132" xmlns:xlink="http://www.w3.org/1999/xlink" width="200" height="200"><defs><style type="text/css"></style></defs><path d="M465.743448 640.176552c2.118621-5.296552 4.237241-10.593103 6.355862-15.536552M997.870345 821.318621v-102.4h-52.612414a199.856552 199.856552 0 0 0-20.833103-50.14069l37.075862-37.075862-72.386207-72.386207-37.075862 37.075862a199.856552 199.856552 0 0 0-50.14069-20.833103v-52.612414h-102.4v52.612414a199.856552 199.856552 0 0 0-50.14069 20.833103l-37.075862-37.075862-72.386207 72.386207 37.075862 37.075862a199.856552 199.856552 0 0 0-20.833103 50.14069h-52.612414v102.4h52.612414a199.856552 199.856552 0 0 0 20.833103 50.140689l-37.075862 37.075862 72.386207 72.386207 37.075862-37.075862a199.856552 199.856552 0 0 0 50.14069 20.833104v52.612413h102.4v-52.612413a199.856552 199.856552 0 0 0 50.14069-20.833104l37.075862 37.075862 72.386207-72.386207-37.075862-37.075862a199.856552 199.856552 0 0 0 20.833103-50.140689z m-247.172414 35.310345a85.097931 85.097931 0 1 1 85.097931-85.097932 85.097931 85.097931 0 0 1-85.097931 83.685518z" p-id="1133"></path><path d="M468.215172 683.608276H529.655172l3.177931-7.768276-44.137931-44.137931 122.526897-122.526897 44.137931 44.137931 7.768276-3.177931v-62.49931H776.827586a490.813793 490.813793 0 0 0 28.248276-72.73931 361.577931 361.577931 0 0 0-70.62069-294.84138A223.161379 223.161379 0 0 0 550.488276 30.013793c-117.583448 6.355862-118.995862 92.16-155.718621 92.16S315.321379 100.281379 285.307586 29.66069H176.904828a223.161379 223.161379 0 0 0 5.649655 35.310344 252.115862 252.115862 0 0 0 139.122758 151.834483 162.427586 162.427586 0 0 1 117.583449 162.074483c-6.355862 32.485517 7.768276 141.241379-157.131035 135.238621s-240.816552-23.657931-272.948965 211.862069h97.456551s6.355862-116.524138 53.671725-115.464828c39.90069 0 56.496552 27.895172 155.012413 79.095172a251.056552 251.056552 0 0 0 78.388966 24.011035 372.524138 372.524138 0 0 0 72.73931 5.296552z" p-id="1134"></path></svg>