<?xml version="1.0" standalone="no"?><!DOCTYPE svg PUBLIC "-//W3C//DTD SVG 1.1//EN" "http://www.w3.org/Graphics/SVG/1.1/DTD/svg11.dtd"><svg t="1556601455748" class="icon" style="" viewBox="0 0 1024 1024" version="1.1" xmlns="http://www.w3.org/2000/svg" p-id="4134" xmlns:xlink="http://www.w3.org/1999/xlink" width="200" height="200"><defs><style type="text/css"></style></defs><path d="M512 577.6c12.2 0 22.3-10 22.3-22.3v-533C534.3 10 524.2 0 512 0s-22.3 10-22.3 22.3v533.1c0 12.2 10.1 22.2 22.3 22.2z" fill="" p-id="4135"></path><path d="M671 206.8c-11.4-4.6-24.4 0.9-29 12.3-4.6 11.4 0.9 24.4 12.3 29C798.4 306.5 891.5 444.6 891.5 600c0 209.3-170.3 379.6-379.6 379.6S132.4 809.2 132.4 599.9c0-155.4 93.1-293.5 237.2-351.9 11.4-4.6 16.9-17.6 12.3-29-4.6-11.4-17.6-16.9-29-12.3-161 65.3-265 219.6-265 393.2C87.9 833.8 278.2 1024 512 1024s424.1-190.2 424.1-424.1c0-173.6-104-327.9-265.1-393.1z" fill="" p-id="4136"></path></svg>