<?xml version="1.0" standalone="no"?><!DOCTYPE svg PUBLIC "-//W3C//DTD SVG 1.1//EN" "http://www.w3.org/Graphics/SVG/1.1/DTD/svg11.dtd"><svg t="1556602570757" class="icon" style="" viewBox="0 0 1024 1024" version="1.1" xmlns="http://www.w3.org/2000/svg" p-id="2955" xmlns:xlink="http://www.w3.org/1999/xlink" width="200" height="200"><defs><style type="text/css"></style></defs><path d="M513.4 450.5m-173 0a173 173 0 1 0 346 0 173 173 0 1 0-346 0Z" fill="#ffffff" p-id="2956"></path><path d="M734.4 569.2c-32.1 0-60.5 15.4-78.3 39.3-24.4 32.8-71.7 54.9-112.6 54.9l-31.4 1.3-31.4-1.3c-40.9 0-88.1-22.2-112.6-54.9-17.8-23.8-46.2-39.3-78.3-39.3-85.3 0-144.7 100-140.6 262.9 0.7 29 3.8 58.5 16 85.6 10.7 23.8 41.7 42 67.8 42h558c26.1 0 57.1-18.2 67.8-42 12.2-27.2 15.2-56.7 16-85.6 4.3-163-55.1-262.9-140.4-262.9z" fill="#ffffff" p-id="2957"></path><path d="M742.9 192.9m-132.2 0a132.2 132.2 0 1 0 264.4 0 132.2 132.2 0 1 0-264.4 0Z" fill="#ffffff" p-id="2958"></path><path d="M916.4 283c-24.5 0-46.2 11.8-59.8 30-18.7 25-54.8 42-86.1 42l-24 1-24-1c-8 0-16.3-1.1-24.5-3.2 15.7 29.1 24.7 62.4 24.7 97.8 0 32.4-7.7 63-21.1 90.4 11.5-3.3 23.5-5.2 35.6-5.2 38.2 0 73.3 15.3 101.5 44.3 0.7 0.7 1.3 1.7 2.1 2.5h119.1c20 0 43.7-13.9 51.8-32.1 9.3-20.8 11.6-43.3 12.2-65.5 3.1-124.6-42.3-201-107.5-201z" fill="#ffffff" p-id="2959"></path><path d="M281.4 192.9m-132.2 0a132.2 132.2 0 1 0 264.4 0 132.2 132.2 0 1 0-264.4 0Z" fill="#ffffff" p-id="2960"></path><path d="M188.5 579.8c28.3-29 63.4-44.3 101.5-44.3 12.2 0 24.1 1.9 35.6 5.2-13.4-27.3-21.1-57.9-21.1-90.4 0-35.4 9-68.6 24.7-97.8-8.2 2.1-16.5 3.2-24.5 3.2l-24 1-24-1c-31.2 0-67.4-17-86.1-42-13.6-18.2-35.3-30-59.8-30-65.2 0-110.6 76.4-107.4 201 0.6 22.1 2.9 44.7 12.2 65.5 8.2 18.2 31.9 32.1 51.8 32.1h119.1c0.6-0.8 1.3-1.7 2-2.5z" fill="#ffffff" p-id="2961"></path></svg>