<?xml version="1.0" standalone="no"?><!DOCTYPE svg PUBLIC "-//W3C//DTD SVG 1.1//EN" "http://www.w3.org/Graphics/SVG/1.1/DTD/svg11.dtd"><svg t="1578295742109" class="icon" viewBox="0 0 1024 1024" version="1.1" xmlns="http://www.w3.org/2000/svg" p-id="1201" xmlns:xlink="http://www.w3.org/1999/xlink" width="200" height="200"><defs><style type="text/css"></style></defs><path d="M565.781333 145.92v721.92H145.92V145.92h419.861333m0-46.08H145.92c-25.6 0-46.08 20.48-46.08 46.08v721.92c0 30.741333 20.48 51.2 46.08 51.2h414.741333c25.578667 0 46.08-20.458667 46.08-46.08V145.92c5.098667-25.6-15.36-46.08-40.96-46.08z m296.96 56.32v711.68H714.24V156.16h148.501333m0-56.32H714.24c-25.578667 0-51.2 25.6-51.2 56.32v711.68c0 30.741333 25.621333 56.341333 56.341333 56.341333h148.458667a56.810667 56.810667 0 0 0 56.341333-56.341333V156.16c-5.141333-30.72-30.72-56.32-61.44-56.32z" fill="" p-id="1202"></path><path d="M509.44 202.24H202.24v51.2h307.2v-51.2z m307.221333 409.6h-51.2v204.842667h51.2V611.84z" fill="" p-id="1203"></path></svg>