<?xml version="1.0" standalone="no"?><!DOCTYPE svg PUBLIC "-//W3C//DTD SVG 1.1//EN" "http://www.w3.org/Graphics/SVG/1.1/DTD/svg11.dtd"><svg t="1574928616207" class="icon" viewBox="0 0 1024 1024" version="1.1" xmlns="http://www.w3.org/2000/svg" p-id="3406" xmlns:xlink="http://www.w3.org/1999/xlink" width="200" height="200"><defs><style type="text/css"></style></defs><path d="M635.068943 567.257511c-30.432103 0-55.193043 23.25361-55.193043 51.826366 0 28.571732 24.76094 51.813063 55.193043 51.813063 30.445406 0 55.218626-23.24133 55.218626-51.813063 0-28.572756-24.77322-51.826366-55.218626-51.826366z m0 77.268828c-15.895015 0-28.823466-11.407817-28.823465-25.443485s12.927427-25.455765 28.823465-25.455765c15.908318 0 28.849048 11.42112 28.849049 25.455765s-12.94073 25.443485-28.849049 25.443485zM485.249753 567.257511c-30.439266 0-55.199183 23.25361-55.199183 51.826366 0 28.571732 24.76094 51.813063 55.199183 51.813063 30.445406 0 55.218626-23.24133 55.218625-51.813063 0-28.572756-24.77322-51.826366-55.218625-51.826366z m0 77.268828c-15.895015 0-28.829606-11.407817-28.829606-25.443485s12.933567-25.455765 28.829606-25.455765c15.908318 0 28.849048 11.42112 28.849048 25.455765s-12.94073 25.443485-28.849048 25.443485zM784.900414 567.257511c-30.445406 0-55.218626 23.25361-55.218626 51.826366 0 28.571732 24.77322 51.813063 55.218626 51.813063 30.439266 0 55.199183-23.24133 55.199182-51.813063 0.001023-28.572756-24.759917-51.826366-55.199182-51.826366z m0 77.268828c-15.908318 0-28.849048-11.407817-28.849049-25.443485s12.94073-25.455765 28.849049-25.455765c15.895015 0 28.829606 11.42112 28.829605 25.455765s-12.933567 25.443485-28.829605 25.443485z" p-id="3407" fill="#ffffff"></path><path d="M648.240941 370.430704V96.921423H76.893274V927.077553H635.05564v-0.003069c10.875698-0.008186 20.786419-4.742001 27.226085-13.014409l40.430828-52.160987C825.022203 840.34519 947.106726 750.894925 947.106726 619.082854c-0.007163-133.728724-132.903939-243.114017-298.865785-248.65215z m-544.978089-247.13868h518.607488v247.13868c-90.600461 3.0208-171.319877 36.981263-225.968521 88.977497H173.430958v26.370601h198.295252c-26.127054 32.725332-42.934858 70.598918-47.430243 111.274316H173.430958v26.370601H323.256288c0.86674 41.717124 13.985526 79.05245 35.438117 111.274316H173.430958v26.369577h205.597565c47.015803 53.029774 117.579929 88.38091 188.382484 100.858082l30.081109 38.782282H103.262852v-777.415952z m590.089519 713.447035l-5.13802 0.823761-46.766117 60.323901c-1.37123 1.77646-3.77293 2.820232-6.4192 2.820232h-0.025582c-1.249457 0-4.365424-0.270153-6.309706-2.806929l-46.7917-60.311621-5.13802-0.823761c-112.997564-18.141172-227.38887-98.745978-227.38887-217.681788 0-122.708739 128.154775-222.548632 285.674344-222.548632 157.52571 0 285.680485 99.840916 285.686625 222.548632 0 118.92353-114.390283 199.51401-227.383754 217.656205z" p-id="3408" fill="#ffffff"></path><path d="M173.430958 322.870502h163.010631v26.370601H173.430958z" p-id="3409" fill="#ffffff"></path></svg>