<?xml version="1.0" standalone="no"?><!DOCTYPE svg PUBLIC "-//W3C//DTD SVG 1.1//EN" "http://www.w3.org/Graphics/SVG/1.1/DTD/svg11.dtd"><svg t="1574928547866" class="icon" viewBox="0 0 1024 1024" version="1.1" xmlns="http://www.w3.org/2000/svg" p-id="1494" xmlns:xlink="http://www.w3.org/1999/xlink" width="200" height="200"><defs><style type="text/css"></style></defs><path d="M97.582851 874.19871V61.715269h736.178924v81.754839H895.091668V46.300215A46.190108 46.190108 0 0 0 849.066722 0H82.277905A46.190108 46.190108 0 0 0 36.252958 46.300215v843.313548A46.190108 46.190108 0 0 0 82.277905 935.913978h123.045161v-61.715268z" fill="#ffffff" p-id="1495"></path><path d="M968.203066 143.139785H198.881775A19.544086 19.544086 0 0 0 179.392743 162.628817v841.882151a19.544086 19.544086 0 0 0 19.489032 19.489032h769.376345a19.544086 19.544086 0 0 0 19.489032-19.489032V162.628817a19.544086 19.544086 0 0 0-19.544086-19.489032z m-534.021506 619.740215a23.948387 23.948387 0 0 1-16.846451 6.826667 23.067527 23.067527 0 0 1-16.846452-6.826667l-162.408602-162.243441a24.388817 24.388817 0 0 1-6.88172-17.066667 25.379785 25.379785 0 0 1 6.88172-16.516129l161.032258-161.142365a24.884301 24.884301 0 0 1 36.665807 0.770753 23.507957 23.507957 0 0 1-1.761721 31.766021L288.949732 583.569892a0.495484 0.495484 0 0 0 0 0.715699l145.011613 145.011613a23.507957 23.507957 0 0 1 0 33.582796z m231.225807-377.11828L547.206937 794.976344a24.333763 24.333763 0 0 1-23.177635 16.846452 36.665806 36.665806 0 0 1-6.826666-1.046022 23.83828 23.83828 0 0 1-16.516129-29.508817l118.475699-408.71914a23.83828 23.83828 0 1 1 45.804731 13.15785z m263.872688 214.709678l-162.463656 162.408602a23.893333 23.893333 0 0 1-16.846451 6.826667 23.067527 23.067527 0 0 1-16.846452-6.826667 23.507957 23.507957 0 0 1 0-33.692903l145.011613-145.011613a0.495484 0.495484 0 0 0 0-0.715699l-145.011613-145.011613a23.507957 23.507957 0 0 1-1.761721-31.766021 24.884301 24.884301 0 0 1 36.665807-0.770753L929.05984 567.053763a24.388817 24.388817 0 0 1 6.826667 16.846452 25.379785 25.379785 0 0 1-6.826667 16.736344z" fill="#ffffff" p-id="1496"></path></svg>