<?xml version="1.0" standalone="no"?><!DOCTYPE svg PUBLIC "-//W3C//DTD SVG 1.1//EN" "http://www.w3.org/Graphics/SVG/1.1/DTD/svg11.dtd"><svg t="1575011206232" class="icon" viewBox="0 0 1024 1024" version="1.1" xmlns="http://www.w3.org/2000/svg" p-id="1302" xmlns:xlink="http://www.w3.org/1999/xlink" width="200" height="200"><defs><style type="text/css"></style></defs><path d="M466 874H124.7V106H850v384h-85.3V191.3H210v597.4h256z" p-id="1303" fill="#ffffff"></path><path d="M338 276.7h298.7V362H338zM338 404.7h298.7V490H338zM800 918H601.4l-99.3-172 99.3-172H800l99.3 172L800 918z m-149.3-85.3h100.1l50-86.7-50-86.7H650.7l-50 86.7 50 86.7z" p-id="1304" fill="#ffffff"></path><path d="M700.7 746m-42.7 0a42.7 42.7 0 1 0 85.4 0 42.7 42.7 0 1 0-85.4 0Z" p-id="1305" fill="#ffffff"></path></svg>