<?xml version="1.0" standalone="no"?><!DOCTYPE svg PUBLIC "-//W3C//DTD SVG 1.1//EN" "http://www.w3.org/Graphics/SVG/1.1/DTD/svg11.dtd"><svg class="icon" width="200px" height="200.00px" viewBox="0 0 1024 1024" version="1.1" xmlns="http://www.w3.org/2000/svg"><path fill="#e6e6e6" d="M805.216 128l-586.432 0C204 128 192 140.2688 192 155.3792l0 713.2352c0 15.1424 12 27.3792 26.7904 27.3792l586.432 0c14.816 0 26.784-12.2368 26.784-27.3792L832.0064 155.3792C832 140.2432 820.0064 128 805.216 128L805.216 128zM771.136 805.2096c0 12.5568-9.6832 22.7264-21.664 22.7264L275.104 827.936c-11.9616 0-21.6704-10.1696-21.6704-22.7264L253.4336 213.2288c0-12.5504 9.7088-22.7264 21.6704-22.7264l474.3744 0c11.9552 0 21.664 10.1504 21.664 22.7264L771.1424 805.2096 771.136 805.2096zM771.136 805.2096M524.9344 323.3024 359.232 323.3024c-16.0512 0-29.056 14.3296-29.056 32 0 17.6704 13.0048 32 29.056 32l165.7024 0c16.0384 0 29.0496-14.3296 29.0496-32C553.9904 337.632 540.9728 323.3024 524.9344 323.3024L524.9344 323.3024zM524.9344 323.3024M701.9648 479.3984 359.232 479.3984c-16.0512 0-29.056 14.3296-29.056 32.0064 0 17.6768 13.0048 31.9936 29.056 31.9936l342.7264 0c16.0448 0 29.056-14.3168 29.056-31.9936C731.0208 493.728 718.0032 479.3984 701.9648 479.3984L701.9648 479.3984zM701.9648 479.3984M630.0224 635.5008 359.2384 635.5008c-16.0512 0-29.056 14.3232-29.056 32 0 17.6832 13.0048 32 29.056 32l270.7904 0c16.0512 0 29.0624-14.3168 29.0624-32C659.0848 649.824 646.0736 635.5008 630.0224 635.5008L630.0224 635.5008zM630.0224 635.5008" /></svg>