<?xml version="1.0" standalone="no"?><!DOCTYPE svg PUBLIC "-//W3C//DTD SVG 1.1//EN" "http://www.w3.org/Graphics/SVG/1.1/DTD/svg11.dtd"><svg class="icon" width="200px" height="200.00px" viewBox="0 0 1024 1024" version="1.1" xmlns="http://www.w3.org/2000/svg"><path fill="#ffffff" d="M258.9 300c33.9 0 64.7 13.8 86.9 36 22.2 22.2 36 53 36 86.9 0 25.8-7.9 49.7-21.5 69.4-3.5-12.7-8.7-25-14.9-37 3.8-10.1 5.9-21 5.9-32.4 0-25.5-10.3-48.6-27.1-65.3-16.7-16.7-39.8-27.1-65.3-27.1s-48.6 10.3-65.3 27.1c-16.7 16.7-27.1 39.8-27.1 65.3s10.3 48.6 27.1 65.3c15.4 15.4 36.3 25.4 59.5 26.9 2.1 8.1 2.5 15.9-0.1 22.9-0.9 2.4-2.1 4.9-3.5 7.4-30.2-2.3-57.3-15.5-77.5-35.7-22.2-22.2-36-53-36-86.9 0-33.9 13.8-64.7 36-86.9 22.2-22.2 53-35.9 86.9-35.9zM483.8 124.5c-0.1 0 0 0 0 0 0.1-0.1 0.1-0.1 0 0z m344.2 0c-0.1-0.1-0.1 0 0 0zM512.8 393.7c12.1 50.6 41.4 85 76.9 103.3 20.5 10.6 43.3 15.9 66.2 15.9 22.9 0 45.6-5.3 66.2-15.9 35.5-18.3 64.8-52.7 76.9-103.3-14.9 14.9-32.8 26.8-52.5 35.6-27.9 12.5-59.3 18.7-90.5 18.7-31.2 0-62.6-6.2-90.5-18.7-19.9-8.8-37.8-20.6-52.7-35.6z m-202.3 61.8c49.8 82.3 15.6 121.2-26.8 169.6-28.6 32.5-61.9 70.5-61.9 138.4 0 35.3 17.9 66.2 46.2 89.5 32 26.4 76.8 43.1 124.6 46.2 6.5 0.4 12.4 0.6 17.8 0.6 59.8 0 114.1-19.8 154.4-55.3 39.9-35.2 66.2-86.2 70.2-149 0.4-6.1 0.6-11.9 0.6-17.3V557.5c-23-2.5-45.7-9.1-66.8-20-54.6-28.2-97.8-84.2-106.2-168l-24.2-240.4c-0.7-6.6 0-12.8 1.9-18.8 2-6 5.2-11.5 9.7-16.4 4.4-4.9 9.5-8.6 15.3-11.2 5.9-2.6 12.1-4 18.5-4H540c7-9.3 18-15.3 30.5-15.3 21.1 0 38.1 17.1 38.1 38.1 0 21.1-17.1 38.1-38.1 38.1-12.5 0-23.6-6-30.5-15.3H483.7v0.1L503.2 317c10.2 40.4 38.7 68.6 74.6 84.6 23.8 10.6 50.9 15.9 78.2 15.9 27.2 0 54.3-5.3 78.1-15.9 35.8-16 64.4-44.2 74.6-84.6L828 124.7v-0.1h-56.3c-7 9.3-18 15.3-30.5 15.3-21.1 0-38.1-17.1-38.1-38.1 0-21.1 17.1-38.1 38.1-38.1 12.5 0 23.6 6 30.5 15.3h56.2c6.4 0 12.6 1.3 18.5 4 5.8 2.6 11 6.3 15.3 11.2 4.5 4.9 7.7 10.4 9.7 16.4 1.9 5.9 2.6 12.2 1.9 18.8l-24.2 240.4c-8.4 83.8-51.5 139.8-106.2 168-19.6 10.1-40.5 16.5-61.8 19.4v121.3c0 7.3-0.2 14-0.6 20.2-4.9 75.7-36.8 137.5-85.6 180.5-48.4 42.7-113.4 66.5-184.6 66.5-7.3 0-14.2-0.2-20.7-0.6-57.2-3.7-111.5-24.2-150.7-56.6-38.4-31.7-62.8-74.6-62.8-124.7 0-85.1 39.4-130 73.2-168.5 28.5-32.4 51.7-58.9 23.1-112.6-4.3 1-8.9 1.5-13.5 1.5-33.7 0-61-27.3-61-61s27.3-61 61-61 61 27.3 61 61c0 11.7-3.4 22.8-9.4 32.3z" /></svg>