<?xml version="1.0" standalone="no"?><!DOCTYPE svg PUBLIC "-//W3C//DTD SVG 1.1//EN" "http://www.w3.org/Graphics/SVG/1.1/DTD/svg11.dtd"><svg class="icon" width="200px" height="200.00px" viewBox="0 0 1024 1024" version="1.1" xmlns="http://www.w3.org/2000/svg"><path fill="#ffffff" d="M897.5 1.8h-771c-37.6 0-68 30.5-68 68v884.4c0 37.6 30.5 68 68 68h771c37.6 0 68-30.5 68-68V69.8c0-37.6-30.4-68-68-68zM420.8 406.6c0 39.9-23.2 74.6-56.7 91.3V821c0 23.5-19 42.5-42.5 42.5h-5.7c-23.5 0-42.5-19-42.5-42.5V497.9c-33.5-16.8-56.7-51.5-56.7-91.3v-51c0-39.9 23.2-74.6 56.7-91.3V203c0-23.5 19-42.5 42.5-42.5h5.7c23.5 0 42.5 19 42.5 42.5v61.2c33.5 16.8 56.7 51.5 56.7 91.3v51.1z m386.5 261.9c0 39.9-23.2 74.6-56.7 91.3V821c0 23.5-19 42.5-42.5 42.5h-5.7c-23.5 0-42.5-19-42.5-42.5v-61.2c-33.5-16.8-56.7-51.5-56.7-91.3v-51c0-39.9 23.2-74.6 56.7-91.3V203c0-23.5 19-42.5 42.5-42.5h5.7c23.5 0 42.5 19 42.5 42.5v323.1c33.5 16.8 56.7 51.5 56.7 91.3v51.1z"  /></svg>