<?xml version="1.0" standalone="no"?><!DOCTYPE svg PUBLIC "-//W3C//DTD SVG 1.1//EN" "http://www.w3.org/Graphics/SVG/1.1/DTD/svg11.dtd"><svg t="1556602480434" class="icon" style="" viewBox="0 0 1024 1024" version="1.1" xmlns="http://www.w3.org/2000/svg" p-id="2746" xmlns:xlink="http://www.w3.org/1999/xlink" width="200" height="200"><defs><style type="text/css"></style></defs><path d="M737.957791 396.958354V96.140463A97.726849 97.726849 0 0 0 635.243288 0.12812h-260.293201a97.726849 97.726849 0 0 0-102.558639 96.012343v313.598755A339.939804 339.939804 0 0 0 145.67386 675.331802c0 191.868821 164.280859 348.668198 366.280852 348.668198S878.235564 867.200622 878.235564 672.058654a346.797828 346.797828 0 0 0-140.277773-275.1003zM511.954712 960.095681c-163.657402 0-297.856472-128.120366-297.856472-288.037027a281.80246 281.80246 0 0 1 113.00154-223.976845l13.716048-9.66358V343.029344h129.990737a33.354937 33.354937 0 0 0 34.290122-32.108024 31.172838 31.172838 0 0 0-34.290122-31.952159h-129.990737v-58.293208h129.990737a33.354937 33.354937 0 0 0 34.290122-31.95216 31.172838 31.172838 0 0 0-34.290122-31.172838h-129.990737V96.140463a31.172838 31.172838 0 0 1 34.134259-31.172839h260.293201a31.172838 31.172838 0 0 1 34.134258 31.172839v335.887334l13.716049 9.66358a285.387336 285.387336 0 0 1 126.717588 233.796289c0 156.487649-134.19907 284.608015-297.856471 284.608015z" p-id="2747" fill="#ffffff"></path><path d="M724.241742 633.716062a31.172838 31.172838 0 0 0-37.719135 28.679012 193.583327 193.583327 0 0 1-133.419749 166.462957 32.887345 32.887345 0 0 0 10.131173 63.904319 28.055555 28.055555 0 0 0 13.716049-3.117284A247.97993 247.97993 0 0 0 754.946988 668.785506a29.458332 29.458332 0 0 0-30.705246-35.069444z" p-id="2748" fill="#ffffff"></path></svg>