<?xml version="1.0" standalone="no"?><!DOCTYPE svg PUBLIC "-//W3C//DTD SVG 1.1//EN" "http://www.w3.org/Graphics/SVG/1.1/DTD/svg11.dtd"><svg class="icon" width="200px" height="200.00px" viewBox="0 0 1024 1024" version="1.1" xmlns="http://www.w3.org/2000/svg"><path fill="#ffffff" d="M572.558927 796.219899l-0.076-0.147a32.331996 32.331996 0 0 0-7.929999-9.950999L385.450951 607.018923c-12.444998-12.444998-32.809996-12.444998-45.254994 0s-12.444998 32.809996 0 45.254994l126.318984 126.318984H31.999996c-17.599998 0-31.999996 14.399998-31.999996 31.999996s14.399998 31.999996 31.999996 31.999996h435.367945L340.548957 969.410877c-12.444998 12.444998-12.444998 32.809996 0 45.254994s32.809996 12.444998 45.254994 0l181.018977-181.018977c9.855999-9.855999 11.897998-24.674997 6.143999-36.596995-0.131-0.28-0.269-0.555-0.408-0.83zM895.999886 0H255.999968c-70.399991 0-127.999984 57.599993-127.999984 127.999984v351.999955c0 17.672998 14.326998 31.999996 31.999996 31.999996 17.672998 0 31.999996-14.326998 31.999996-31.999996V127.999984c0-16.953998 6.695999-32.985996 18.854997-45.144995C223.013972 70.695991 239.04597 63.999992 255.999968 63.999992h639.999918c16.953998 0 32.985996 6.695999 45.144995 18.854997C953.303879 95.013988 959.999878 111.045986 959.999878 127.999984v767.999902c0 16.953998-6.695999 32.985996-18.854997 45.144995C928.985882 953.303879 912.953884 959.999878 895.999886 959.999878H671.999915c-17.672998 0-31.999996 14.326998-31.999996 31.999996 0 17.672998 14.326998 31.999996 31.999996 31.999996h223.999971c70.399991 0 127.999984-57.599993 127.999984-127.999984V127.999984c0-70.399991-57.599993-127.999984-127.999984-127.999984z" /></svg>