<?xml version="1.0" standalone="no"?><!DOCTYPE svg PUBLIC "-//W3C//DTD SVG 1.1//EN" "http://www.w3.org/Graphics/SVG/1.1/DTD/svg11.dtd"><svg class="icon" width="200px" height="200.00px" viewBox="0 0 1024 1024" version="1.1" xmlns="http://www.w3.org/2000/svg"><path fill="#ffffff" d="M959.488 785.066667a29.013333 29.013333 0 0 1-29.098667 28.074666H89.258667C73.728 813.141333 63.146667 800.597333 63.146667 785.066667V126.293333c-0.768-21.248 5.973333-28.245333 26.112-28.074666h841.216c22.613333-0.256 29.354667 7.850667 29.013333 28.074666m-842.154667 58.026667v542.72a28.16 28.16 0 0 0 28.16 28.074667h729.088a28.074667 28.074667 0 0 0 28.074667-28.074667V184.32a28.074667 28.074667 0 0 0-28.074667-28.074667H145.408c-15.530667 0-28.16 10.581333-28.16 26.112v1.962667z m84.053334 687.786667h616.789333c15.530667 0 28.16 9.557333 28.16 25.088s-12.629333 31.146667-28.16 31.146666H201.386667a28.16 28.16 0 0 1 0-56.234666zM641.194667 644.437333l-2.048-2.304a28.16 28.16 0 0 1 1.28-38.229333l107.434666-107.434667a27.989333 27.989333 0 0 0 0-39.68l-107.349333-107.52a27.818667 27.818667 0 0 1-1.194667-38.229333l1.962667-2.218667a27.904 27.904 0 0 1 41.045333-1.109333l144.896 149.333333a27.989333 27.989333 0 0 1 0 39.082667l-144.725333 149.333333a28.245333 28.245333 0 0 1-41.301333-1.024z m-262.656 0l1.962666-2.218666a28.245333 28.245333 0 0 0-1.194666-38.314667l-107.52-107.52a27.989333 27.989333 0 0 1 0-39.68l107.434666-107.434667a27.818667 27.818667 0 0 0 1.194667-38.229333l-1.962667-2.218667a27.989333 27.989333 0 0 0-41.130666-1.109333l-145.066667 149.504a27.989333 27.989333 0 0 0 0 39.082667l144.896 149.333333a28.501333 28.501333 0 0 0 41.386667-1.194667z m186.965333-390.912a28.16 28.16 0 0 1 20.48 33.962667L488.277333 679.338667a28.16 28.16 0 0 1-54.528-13.482667l97.706667-391.850667a28.074667 28.074667 0 0 1 34.048-20.48z" /></svg>