<?xml version="1.0" standalone="no"?><!DOCTYPE svg PUBLIC "-//W3C//DTD SVG 1.1//EN" "http://www.w3.org/Graphics/SVG/1.1/DTD/svg11.dtd"><svg class="icon" width="200px" height="200.00px" viewBox="0 0 1024 1024" version="1.1" xmlns="http://www.w3.org/2000/svg"><path fill="#ffffff" d="M896 144.887h-768c-18 0-36 12-36 36v624c0 18 18 36 36 36h768c18 0 36-18 36-36v-624c0-24-18-36-36-36zM452 558.887c-24 12-132 90-150 96-6 6-6 6-18 0l-12-12c-6-6 0-12 6-18 18-12 96-66 132-90-36-18-114-72-132-84l-6-6c6-6 12-18 18-24s6-6 12 0 138 90 150 102c18 12 12 24 0 36zM656 702.887c0 6 0 6-6 6h-180c-6 0-6 0-6-6v-36c0-6 0-6 6-6h180c6 0 6 0 6 6v36zM860 348.887h-696c-6 0-12-6-12-12v-120c0-6 6-12 12-12h690c12 0 18 6 18 12v120c0 6-6 12-12 12z"  /><path fill="#ffffff" d="M218 262.22c18 0 30 12 30 30s-12 30-30 30-30-12-30-30 12-30 30-30zM314 262.22c18 0 30 12 30 30s-12 30-24 30c-18 0-30-12-30-30-6-18 12-30 24-30zM416 262.22c18 0 30 12 30 30s-12 30-30 30-30-12-30-30c-6-18 12-30 30-30z"  /></svg>