<?xml version="1.0" standalone="no"?><!DOCTYPE svg PUBLIC "-//W3C//DTD SVG 1.1//EN" "http://www.w3.org/Graphics/SVG/1.1/DTD/svg11.dtd"><svg t="1558518425578" class="icon" style="" viewBox="0 0 1024 1024" version="1.1" xmlns="http://www.w3.org/2000/svg" p-id="1797" xmlns:xlink="http://www.w3.org/1999/xlink" width="200" height="200"><defs><style type="text/css"></style></defs><path d="M887.466667 194.133333c-128 27.733333-260.266667 44.8-396.8 44.8-121.6 0-241.066667-12.8-354.133334-36.266666-25.6-6.4-51.2 12.8-51.2 38.4v539.733333c0 25.6 25.6 44.8 51.2 40.533333 115.2-23.466667 232.533333-36.266667 354.133334-36.266666 136.533333 0 268.8 14.933333 396.8 44.8 25.6 6.4 51.2-12.8 51.2-40.533334V232.533333c0-25.6-25.6-44.8-51.2-38.4z m8.533333 571.733334l-213.333333-142.933334-85.333334 59.733334-213.333333-162.133334L128 748.8V243.2c119.466667 23.466667 241.066667 36.266667 362.666667 36.266667 136.533333 0 273.066667-14.933333 405.333333-44.8v531.2zM725.333333 512c36.266667 0 64-27.733333 64-64s-27.733333-64-64-64-64 27.733333-64 64 27.733333 64 64 64z" p-id="1798" data-spm-anchor-id="a313x.7781069.0.i0"></path></svg>